<svg xmlns="http://www.w3.org/2000/svg" viewBox="0 0 996.72 281.72"><defs><style>.cls-1{fill:#ffb625;}.cls-1,.cls-2,.cls-3,.cls-4{stroke:#000;}.cls-1,.cls-2,.cls-3,.cls-4,.cls-5{stroke-miterlimit:10;}.cls-1,.cls-2{stroke-width:6px;}.cls-2,.cls-3{fill:none;}.cls-3{stroke-width:4px;}.cls-4{fill:#ee638d;}.cls-5{fill:#64180e;stroke:#231f20;}</style></defs><title>Asset 31</title><g id="Layer_2" data-name="Layer 2"><g id="Layer_1-2" data-name="Layer 1"><path class="cls-1" d="M320.54,248.07c-22.35-31.78-17.49-134,11.24-180S383.33,3,500.39,3,643.46,14.71,679.63,70.12,705,213.28,688.54,246.64s-75.2,50.68-119,1.43,4.87-164.92-67.8-163.65-31.54,119.7-72.52,163.65S342.88,279.84,320.54,248.07Z" transform="translate(0)"/><path class="cls-2" d="M444.76,217.33s52.61,52.52,109.23,0" transform="translate(0)"/><path d="M23.23,26A362.56,362.56,0,0,0,11.51,66.31a209,209,0,0,0-7.25,41A110.3,110.3,0,0,0,4.75,128a61.65,61.65,0,0,0,5.59,19.52,38.54,38.54,0,0,0,12.94,15,43.24,43.24,0,0,0,8.93,4.57,54.53,54.53,0,0,0,9.8,2.56,52,52,0,0,0,10.11.74A41.09,41.09,0,0,0,62.06,169a43.66,43.66,0,0,0,17.54-9.54,67.41,67.41,0,0,0,12.86-15.8A115.37,115.37,0,0,0,101.37,125a211.73,211.73,0,0,0,10.36-40.35c1.43-6.84,2.6-13.74,3.59-20.67.5-3.47,1-6.95,1.33-10.44s.76-7,1-10.48a280.34,280.34,0,0,1-2,42.23,215.15,215.15,0,0,1-10.57,41.13,119.5,119.5,0,0,1-9.23,19.31,71.06,71.06,0,0,1-13.65,16.73,47.49,47.49,0,0,1-19.14,10.4,45,45,0,0,1-10.87,1.53,55.65,55.65,0,0,1-10.87-.79,59.92,59.92,0,0,1-10.54-2.76,47.21,47.21,0,0,1-9.77-5A42.6,42.6,0,0,1,6.76,149.29a65.65,65.65,0,0,1-6-20.8,113.49,113.49,0,0,1-.52-21.4C1.16,92.87,4,78.92,7.62,65.26A280.76,280.76,0,0,1,23.23,26Z" transform="translate(0)"/><path d="M974.16,19.59a271.67,271.67,0,0,1,15.18,38c3.5,13.23,6.25,26.74,7.12,40.52a110.7,110.7,0,0,1-.51,20.74,63.35,63.35,0,0,1-5.79,20.16,41.28,41.28,0,0,1-13.84,16,45.24,45.24,0,0,1-9.49,4.86,57.82,57.82,0,0,1-10.22,2.68,55.3,55.3,0,0,1-10.54.77,43.79,43.79,0,0,1-10.53-1.49A46.15,46.15,0,0,1,917,151.82a69.23,69.23,0,0,1-13.23-16.22,116.24,116.24,0,0,1-8.94-18.71,209.11,209.11,0,0,1-10.24-39.84,272.1,272.1,0,0,1-1.85-40.92,332.62,332.62,0,0,0,5.8,40.27,204.67,204.67,0,0,0,10,39.07,111.31,111.31,0,0,0,8.63,18.06,65.08,65.08,0,0,0,12.44,15.28A42.2,42.2,0,0,0,936.56,158a40,40,0,0,0,9.62,1.35,50.07,50.07,0,0,0,9.77-.72,53,53,0,0,0,9.49-2.48,41.34,41.34,0,0,0,8.63-4.42,37.27,37.27,0,0,0,12.52-14.51,59.85,59.85,0,0,0,5.4-18.88,107.43,107.43,0,0,0,.48-20,202.46,202.46,0,0,0-7-39.72A350.25,350.25,0,0,0,974.16,19.59Z" transform="translate(0)"/><line class="cls-2" x1="451.07" y1="176.56" x2="547.68" y2="176.56"/><path class="cls-3" d="M447.64,204.14c-5.17-1.51,41.72-19.26,91.3,24.86" transform="translate(0)"/><path class="cls-4" d="M450.74,203.71c-.73,4.24-1.58,8.41-2.6,12.43A90.77,90.77,0,0,0,479.29,234c19.29,6.2,37.88,4.11,55.51-6.19C495.41,194.56,459.37,200.55,450.74,203.71Z" transform="translate(0)"/><path class="cls-5" d="M453.85,179.54c-.66,6.72-1.41,13.41-2.4,19.93,13-3.72,49.08-6.19,86.92,26.34a99.76,99.76,0,0,0,12.24-9.47c-3-11.59-4.34-24.11-5.23-36.8Z" transform="translate(0)"/></g></g></svg>