<svg xmlns="http://www.w3.org/2000/svg" viewBox="0 0 804.85 299.09"><defs><style>.cls-1{fill:#050201;stroke-width:2px;}.cls-1,.cls-2,.cls-3,.cls-4{stroke:#000;stroke-miterlimit:10;}.cls-2{fill:#fff;}.cls-2,.cls-3,.cls-4{stroke-width:6px;}.cls-3{fill:#ffb625;}.cls-4{fill:none;}</style></defs><title>Asset 35</title><g id="Layer_2" data-name="Layer 2"><g id="Layer_1-2" data-name="Layer 1"><ellipse class="cls-1" cx="233.31" cy="125.96" rx="115.72" ry="119.9"/><ellipse class="cls-2" cx="246.99" cy="120.9" rx="96.09" ry="107.75"/><ellipse class="cls-1" cx="584.85" cy="120.9" rx="115.72" ry="119.9"/><ellipse class="cls-2" cx="598.53" cy="115.84" rx="96.09" ry="107.75"/><path class="cls-3" d="M272.45,272.84c-16.66-24.1-17.14-111.75,22-164.66s175.47-65.59,223-.06,41.68,138.33,29.44,163.64-56.08,38.44-88.73,1.08,3.63-125.09-50.57-124.13-23.52,90.8-54.08,124.13S289.12,296.94,272.45,272.84Z"/><ellipse cx="408.63" cy="164.04" rx="44.13" ry="30.3"/><path class="cls-4" d="M365.1,232.89s39.23,35.58,81.46,0"/><path class="cls-4" d="M5.7,123.43S-8.95,187.11,30,187.11s24.32-63.68,24.32-63.68"/><path class="cls-4" d="M750.49,127.17s-14.65,63.68,24.33,63.68,24.33-63.68,24.33-63.68"/></g></g></svg>