<svg xmlns="http://www.w3.org/2000/svg" viewBox="0 0 996.72 408.75"><defs><style>.cls-1{fill:#050201;stroke-width:2px;}.cls-1,.cls-2,.cls-3,.cls-4{stroke:#000;stroke-miterlimit:10;}.cls-2{fill:#fff;}.cls-2,.cls-3,.cls-4{stroke-width:6px;}.cls-3{fill:#ffb625;}.cls-4{fill:none;}</style></defs><title>Asset 24</title><g id="Layer_2" data-name="Layer 2"><g id="Layer_1-2" data-name="Layer 1"><ellipse class="cls-1" cx="294.06" cy="157.17" rx="136.1" ry="149.85"/><ellipse class="cls-2" cx="310.15" cy="150.85" rx="113.01" ry="134.66"/><ellipse class="cls-1" cx="707.54" cy="150.85" rx="136.1" ry="149.85"/><ellipse class="cls-2" cx="723.63" cy="144.52" rx="113.01" ry="134.66"/><path class="cls-3" d="M320.54,375.09c-22.35-31.77-17.49-134,11.24-180s51.55-65,168.61-65,143.08,11.7,179.24,67.12S705,340.31,688.54,373.66s-75.2,50.69-119,1.43,4.88-164.91-67.8-163.64-31.54,119.7-72.52,163.64S342.89,406.87,320.54,375.09Z"/><ellipse cx="503.93" cy="239.78" rx="59.17" ry="39.4"/><path class="cls-4" d="M444.76,344.36s52.61,52.52,109.23,0"/><path d="M23.23,153.57A420.69,420.69,0,0,0,11.67,197a252.35,252.35,0,0,0-7.32,44,136.44,136.44,0,0,0,.21,22.15,75.53,75.53,0,0,0,5,21.28,43.2,43.2,0,0,0,12.36,17.34,44.15,44.15,0,0,0,19.42,8.78,44.15,44.15,0,0,0,21.29-.74,43.18,43.18,0,0,0,18-11.33,75.82,75.82,0,0,0,12.67-17.8,136.89,136.89,0,0,0,8.62-20.41,254.91,254.91,0,0,0,10-43.47,394.62,394.62,0,0,0,5.79-44.53c.26,7.51.16,15-.18,22.55s-.87,15.05-1.65,22.56a259.42,259.42,0,0,1-10.14,44.16,139.63,139.63,0,0,1-8.88,21,79.59,79.59,0,0,1-13.35,18.73A47.22,47.22,0,0,1,63.75,313.6a48.28,48.28,0,0,1-23.24.83,48.14,48.14,0,0,1-21.17-9.61A47.06,47.06,0,0,1,5.81,285.91a79.39,79.39,0,0,1-5.23-22.4A139,139,0,0,1,.36,240.7,261.23,261.23,0,0,1,7.75,196,325.63,325.63,0,0,1,23.23,153.57Z"/><path d="M974.16,146.61a313.07,313.07,0,0,1,15.05,41.07A252.74,252.74,0,0,1,996.38,231a135.84,135.84,0,0,1-.22,22.09,77.07,77.07,0,0,1-5.07,21.72A45.6,45.6,0,0,1,978,293.14a49.24,49.24,0,0,1-43.07,8.51,45.78,45.78,0,0,1-19.11-12,77,77,0,0,1-12.94-18.15,134.83,134.83,0,0,1-8.6-20.36,250.58,250.58,0,0,1-9.83-42.78,322.61,322.61,0,0,1-1.71-43.7,397.7,397.7,0,0,0,5.67,43.11A246.8,246.8,0,0,0,898,249.88a131.76,131.76,0,0,0,8.34,19.76,72.78,72.78,0,0,0,12.26,17.22,41.64,41.64,0,0,0,17.43,11,45.32,45.32,0,0,0,39.37-7.77,41.74,41.74,0,0,0,11.95-16.77,73.31,73.31,0,0,0,4.79-20.59,131.12,131.12,0,0,0,.2-21.44,245.21,245.21,0,0,0-7.08-42.6A410.64,410.64,0,0,0,974.16,146.61Z"/></g></g></svg>