<svg xmlns="http://www.w3.org/2000/svg" viewBox="0 0 996.72 408.75"><defs><style>.cls-1{fill:#050201;stroke-width:2px;}.cls-1,.cls-2,.cls-3,.cls-4,.cls-5,.cls-6{stroke:#000;}.cls-1,.cls-2,.cls-3,.cls-4,.cls-5,.cls-6,.cls-7{stroke-miterlimit:10;}.cls-2{fill:#fff;}.cls-2,.cls-3,.cls-4{stroke-width:6px;}.cls-3{fill:#ffb625;}.cls-4,.cls-5{fill:none;}.cls-5{stroke-width:4px;}.cls-6{fill:#ee638d;}.cls-7{fill:#64180e;stroke:#231f20;}</style></defs><title>Asset 28</title><g id="Layer_2" data-name="Layer 2"><g id="Layer_1-2" data-name="Layer 1"><ellipse class="cls-1" cx="294.06" cy="157.17" rx="136.1" ry="149.85"/><ellipse class="cls-2" cx="310.15" cy="150.85" rx="113.01" ry="134.66"/><ellipse class="cls-1" cx="707.53" cy="150.85" rx="136.1" ry="149.85"/><ellipse class="cls-2" cx="723.63" cy="144.52" rx="113.01" ry="134.66"/><path class="cls-3" d="M320.54,375.09c-22.35-31.77-17.49-134,11.24-180s51.55-65,168.61-65,143.07,11.7,179.24,67.12S705,340.31,688.54,373.66s-75.2,50.69-119,1.43,4.87-164.91-67.8-163.64-31.54,119.7-72.52,163.64S342.88,406.87,320.54,375.09Z" transform="translate(0)"/><path class="cls-4" d="M444.76,344.36s52.61,52.52,109.23,0" transform="translate(0)"/><path d="M23.23,153a361.32,361.32,0,0,0-11.72,40.35,209,209,0,0,0-7.25,41A110.32,110.32,0,0,0,4.75,255a61.51,61.51,0,0,0,5.59,19.51,38.47,38.47,0,0,0,12.94,15,42.75,42.75,0,0,0,8.93,4.57,54.55,54.55,0,0,0,9.8,2.57,52,52,0,0,0,10.11.74,41.6,41.6,0,0,0,9.94-1.4,43.66,43.66,0,0,0,17.54-9.54,67,67,0,0,0,12.86-15.8A115.27,115.27,0,0,0,101.37,252a211.63,211.63,0,0,0,10.36-40.36c1.43-6.83,2.6-13.73,3.59-20.67.5-3.46,1-6.94,1.33-10.43s.76-7,1-10.49a280.41,280.41,0,0,1-2,42.24,215.53,215.53,0,0,1-10.57,41.13,119,119,0,0,1-9.23,19.3,70.91,70.91,0,0,1-13.65,16.74,47.61,47.61,0,0,1-19.14,10.4,45.53,45.53,0,0,1-10.87,1.53,55.65,55.65,0,0,1-10.87-.8,58.23,58.23,0,0,1-10.54-2.76,46.73,46.73,0,0,1-9.77-5A42.53,42.53,0,0,1,6.76,276.31a65.67,65.67,0,0,1-6-20.79,113.6,113.6,0,0,1-.52-21.41C1.16,219.89,4,206,7.62,192.29A279.79,279.79,0,0,1,23.23,153Z" transform="translate(0)"/><path d="M974.16,146.61a272.65,272.65,0,0,1,15.18,38c3.5,13.24,6.25,26.74,7.12,40.52a110.83,110.83,0,0,1-.51,20.75,63.5,63.5,0,0,1-5.79,20.16,41.28,41.28,0,0,1-13.84,16,45.2,45.2,0,0,1-9.49,4.85,56.14,56.14,0,0,1-10.22,2.68,53.72,53.72,0,0,1-10.54.77,43.78,43.78,0,0,1-10.53-1.48A46.27,46.27,0,0,1,917,278.85a69.08,69.08,0,0,1-13.23-16.23,115.43,115.43,0,0,1-8.94-18.71,208.73,208.73,0,0,1-10.24-39.84,272,272,0,0,1-1.85-40.91,332.62,332.62,0,0,0,5.8,40.27,204.38,204.38,0,0,0,10,39.06,110.92,110.92,0,0,0,8.63,18.06,64.93,64.93,0,0,0,12.44,15.29,42.18,42.18,0,0,0,16.95,9.22,40,40,0,0,0,9.62,1.35,50.06,50.06,0,0,0,9.77-.71,53,53,0,0,0,9.49-2.49,40.83,40.83,0,0,0,8.63-4.41,37.34,37.34,0,0,0,12.52-14.51,59.85,59.85,0,0,0,5.4-18.88,107.54,107.54,0,0,0,.48-20,202.72,202.72,0,0,0-7-39.72A351.48,351.48,0,0,0,974.16,146.61Z" transform="translate(0)"/><line class="cls-4" x1="451.07" y1="303.59" x2="547.68" y2="303.59"/><path class="cls-5" d="M447.64,331.16c-5.17-1.51,41.72-19.26,91.3,24.87" transform="translate(0)"/><path class="cls-6" d="M450.74,330.73c-.73,4.25-1.58,8.41-2.6,12.44a91,91,0,0,0,31.15,17.88c19.29,6.2,37.88,4.11,55.51-6.19C495.41,321.59,459.37,327.57,450.74,330.73Z" transform="translate(0)"/><path class="cls-7" d="M453.85,306.57c-.66,6.72-1.41,13.41-2.4,19.93,13-3.72,49.08-6.19,86.92,26.34a100.75,100.75,0,0,0,12.24-9.47c-3-11.59-4.34-24.11-5.23-36.8Z" transform="translate(0)"/></g></g></svg>