<svg xmlns="http://www.w3.org/2000/svg" viewBox="0 0 663.61 1807.92"><defs><style>.cls-1{fill:#ffb625;stroke:#231f20;stroke-miterlimit:10;stroke-width:4px;}</style></defs><title>Asset 18</title><g id="Layer_2" data-name="Layer 2"><g id="Layer_1-2" data-name="Layer 1"><path class="cls-1" d="M200.32,4.44S303.84,972.71,334.17,1185.15,472.55,1750,472.55,1750s-23.08-24.84-19.93,13.36,10.5,39.56,36.94,28.79.92-69.57.92-69.57-91.22-233.57-121.55-475.1S249.56,4.44,249.56,4.44Z"/><path class="cls-1" d="M416.67,6.24s28,773.39,58.29,985.82c19.19,134.43,75.45,198.54,123.55,404,27.91,119.27,51.37,345.75,51.37,345.75s-39.71-5.37-45.25,23.73,1.55,34.42,41.6,28.4-5.82-434.53-49.78-531.15S520.19,1126.69,500,965.66C469.63,724.12,460.69,6.24,460.69,6.24Z"/><path class="cls-1" d="M294.06,2s-62.18,499.79-74.29,667.12,40.53,637.9,45.08,829.73-48.16,253.57-48.16,253.57-20.83-22.07-27,18.65,33.64,45.54,47.34,15.6,50.27-68.33,46-335-50.83-549.19-35.58-802.43S340.56,2.06,340.56,2.06Z"/><path class="cls-1" d="M104,6.24S46.27,595.54,37.33,762.43s-7.77,994.17-7.77,994.17-20.83-22.07-27,18.66,41.53,28.29,43.9,3.47C47.62,1766.52,50.27,1035.4,62,849S138.08,6.24,138.08,6.24Z"/></g></g></svg>